<svg xmlns="http://www.w3.org/2000/svg" viewBox="0 0 39.24 39.363"><defs><style>.a{fill:#fff;}</style></defs><g transform="translate(11.251)"><path class="a" d="M35.149,8.426a8.426,8.426,0,0,0-16.852,0v5.6a1.387,1.387,0,0,0,2.768.185V8.426a5.6,5.6,0,0,1,11.194,0v5.6a1.387,1.387,0,0,0,2.768.185V8.426Z" transform="translate(-18.293)"/><rect class="a" width="8.488" height="2.46" transform="translate(4.187 11.071)"/></g><path class="a" d="M39.24,44.939,36.964,19.107A1.258,1.258,0,0,0,35.734,18H29.522v2.46h5.1l1.107,12.608.554,5.843h0l.431,4.92H2.583l.246-2.706h0l.431-4.674h0L4.736,20.46h5.1V18H3.567a1.258,1.258,0,0,0-1.23,1.107L0,45.062a1.234,1.234,0,0,0,1.23,1.23H38.01a1.234,1.234,0,0,0,1.23-1.23Z" transform="translate(0 -6.929)"/></svg>