<svg xmlns="http://www.w3.org/2000/svg" viewBox="0 0 54.77 65"><defs><style>.a,.b{fill:#fff;}.a{font-size:12px;font-family:HelveticaNeue-Medium, Helvetica Neue;font-weight:500;letter-spacing:0.38em;}</style></defs><g transform="translate(-1780 -100)"><g transform="translate(0 -1)"><text class="a" transform="translate(1780 163)"><tspan x="0" y="0">MENU</tspan></text><g transform="translate(0 13)"><path class="b" d="M0,147.5H45V143H0" transform="translate(1780 -38.832)"/><path class="b" d="M30,247.5H65V243H30" transform="translate(1755 -127.525)"/><path class="b" d="M70,347.5H95V343H70" transform="translate(1720 -216.219)"/><path class="b" d="M140.67.441a1.5,1.5,0,0,0-2.126,0A5.365,5.365,0,0,0,136.6,4.5a5.308,5.308,0,0,0,1.945,4.059c.735.735,1.063,1.1,1.063,1.945a1.5,1.5,0,1,0,3.008,0,5.308,5.308,0,0,0-1.945-4.059c-.735-.735-1.063-1.1-1.063-1.945s.328-1.2,1.063-1.945A1.488,1.488,0,0,0,140.67.441Z" transform="translate(1658.845 88)"/><path class="b" d="M202.67.441a1.5,1.5,0,0,0-2.126,0A5.365,5.365,0,0,0,198.6,4.5a5.308,5.308,0,0,0,1.945,4.059c.735.735,1.063,1.1,1.063,1.945a1.5,1.5,0,1,0,3.008,0,5.308,5.308,0,0,0-1.945-4.059c-.735-.735-1.063-1.1-1.063-1.945s.328-1.2,1.063-1.945A1.488,1.488,0,0,0,202.67.441Z" transform="translate(1603.855 88)"/><g transform="translate(-1 -1)"><path class="b" d="M30,257.556h3.77V243H30" transform="translate(1802 -128.525)"/><path class="b" d="M30,250.653h3.64V243H30" transform="translate(2078.77 83.933) rotate(90)"/><path class="b" d="M30,250.653h3.64V243H30" transform="translate(2078.77 95.933) rotate(90)"/></g></g></g></g></svg>